<svg width="17" height="11" viewBox="0 0 17 11" fill="none" xmlns="http://www.w3.org/2000/svg">
<path d="M16.2912 4.46875H4.33488L5.48032 1.28944C5.61773 1.129 5.68383 0.922153 5.6641 0.714408C5.64436 0.506664 5.5404 0.315036 5.37509 0.181682C5.20977 0.0483279 4.99665 -0.0158293 4.78259 0.00332445C4.56854 0.0224782 4.37109 0.123374 4.23369 0.283816L0.186185 4.99768C0.158954 5.03517 0.134603 5.07456 0.11333 5.11553C0.11333 5.15481 0.11333 5.17838 0.0566652 5.21766C0.0199734 5.30774 0.000761839 5.40363 0 5.50049C0.000761839 5.59735 0.0199734 5.69324 0.0566652 5.78332C0.0566652 5.8226 0.056665 5.84617 0.11333 5.88546C0.134603 5.92642 0.158954 5.96581 0.186185 6.0033L4.23369 10.7172C4.3098 10.8059 4.40511 10.8772 4.51284 10.9261C4.62058 10.9749 4.73808 11.0002 4.85701 11C5.04615 11.0004 5.22945 10.9364 5.37509 10.8193C5.45706 10.7533 5.52481 10.6723 5.57448 10.5809C5.62414 10.4895 5.65474 10.3895 5.66451 10.2866C5.67429 10.1837 5.66305 10.0799 5.63144 9.98127C5.59984 9.88259 5.54848 9.79093 5.48032 9.71154L4.24988 6.53125L16.19 6.62988C16.4047 6.62988 16.6106 6.54711 16.7624 6.39978C16.9142 6.25244 16.9995 6.05261 16.9995 5.84424C16.9995 5.63588 17.0154 4.8462 16.8636 4.69886C16.7118 4.55152 16.5059 4.46875 16.2912 4.46875Z" fill="#6C7A93"/>
</svg>
