<svg width="27" height="36" viewBox="0 0 27 36" fill="none" xmlns="http://www.w3.org/2000/svg">
<path d="M25.242 5.12102L21.879 1.75802C21.323 1.19898 20.6617 0.755758 19.9333 0.453999C19.2049 0.152239 18.4239 -0.0020635 17.6355 2.08378e-05H4.5C3.30653 2.08378e-05 2.16193 0.474126 1.31802 1.31804C0.474106 2.16195 0 3.30655 0 4.50002V35C0 35.5523 0.447715 36 1 36H26C26.5523 36 27 35.5523 27 35V9.36302C26.9961 7.77257 26.3642 6.24801 25.242 5.12102ZM23.121 7.24202C23.2151 7.34418 23.1376 7.50002 22.9987 7.50002H20.5C19.9477 7.50002 19.5 7.0523 19.5 6.50002V4.00132C19.5 3.8624 19.6558 3.78488 19.758 3.87902L23.121 7.24202ZM4 33C3.44772 33 3 32.5523 3 32V4.50002C3 4.10219 3.15804 3.72066 3.43934 3.43936C3.72064 3.15805 4.10218 3.00002 4.5 3.00002H15.5C16.0523 3.00002 16.5 3.44773 16.5 4.00002V9.50002C16.5 10.0523 16.9477 10.5 17.5 10.5H23C23.5523 10.5 24 10.9477 24 11.5V32C24 32.5523 23.5523 33 23 33H4ZM6 23C6 23.5523 6.44772 24 7 24H20C20.5523 24 21 23.5523 21 23V16C21 15.4477 20.5523 15 20 15H7C6.44772 15 6 15.4477 6 16V23ZM9 19C9 18.4477 9.44771 18 10 18H17C17.5523 18 18 18.4477 18 19V20C18 20.5523 17.5523 21 17 21H10C9.44771 21 9 20.5523 9 20V19ZM6 28C6 27.4477 6.44772 27 7 27H20C20.5523 27 21 27.4477 21 28V29C21 29.5523 20.5523 30 20 30H7C6.44772 30 6 29.5523 6 29V28Z" fill="#9BB1BB"/>
</svg>
