<svg width="19" height="19" viewBox="0 0 19 19" fill="none" xmlns="http://www.w3.org/2000/svg">
<path d="M13.4199 6.89718H8.02071C7.67741 6.89718 7.39653 7.17807 7.39653 7.52136C7.39653 7.86466 7.67741 8.14554 8.02071 8.14554H13.3887C13.732 8.14554 14.0128 7.86466 14.0128 7.52136C14.0128 7.17807 13.7632 6.89718 13.4199 6.89718ZM13.4199 10.4238H8.02071C7.67741 10.4238 7.39653 10.7047 7.39653 11.048C7.39653 11.3913 7.67741 11.6722 8.02071 11.6722H13.3887C13.732 11.6722 14.0128 11.3913 14.0128 11.048C14.0128 10.7047 13.7632 10.4238 13.4199 10.4238ZM16.1663 0H5.27432C4.21321 0 3.37057 0.842643 3.37057 1.90375V3.37057H1.99737C0.90506 3.37057 0 4.27563 0 5.36794V16.728C0 17.8203 0.90506 18.7254 1.99737 18.7254H12.7021C13.7944 18.7254 14.6994 17.8203 14.6994 16.728V15.3548H16.1663C17.2274 15.3548 18.07 14.5122 18.07 13.4511V1.90375C18.07 0.842643 17.2274 0 16.1663 0ZM13.4511 16.728C13.4511 17.1337 13.1078 17.477 12.7021 17.477H2.02858C1.62287 17.477 1.27957 17.1337 1.27957 16.728V5.36794C1.27957 4.96223 1.62287 4.61893 2.02858 4.61893H3.40178V13.4823C3.40178 14.5434 4.24442 15.386 5.30553 15.386H13.4823V16.728H13.4511ZM16.8216 13.4511C16.8216 13.7944 16.5408 14.1065 16.1663 14.1065H5.27432C4.93102 14.1065 4.61893 13.8256 4.61893 13.4511V1.90375C4.61893 1.52924 4.93102 1.24836 5.27432 1.24836H16.1663C16.5408 1.24836 16.8216 1.52924 16.8216 1.90375V13.4511ZM13.4199 3.37057H8.02071C7.67741 3.37057 7.39653 3.65145 7.39653 3.99475C7.39653 4.33805 7.67741 4.61893 8.02071 4.61893H13.3887C13.732 4.61893 14.0128 4.33805 14.0128 3.99475C14.0128 3.65145 13.7632 3.37057 13.4199 3.37057Z" fill="#2A7086"/>
</svg>
